<svg xmlns="http://www.w3.org/2000/svg" height="323.739" width="463.597" viewBox="0 0 434.609 303.505"><path d="M0 116.64l1.797-9.453h14.922L35.78 9.453H20.859L22.656 0h60l-1.797 9.453h-15l-18.75 96.484h45.938l3.516-18.438h10.547l-5.625 29.14H.005zm183.44-65q0-11.484-9.687-11.484-7.422 0-11.797 7.031-4.375 6.953-8.36 28.906h1.719q23.906 0 27.578-18.984.547-2.969.547-5.469zm-31.719 33.75q-.469 2.656-.469 8.203.078 16.484 16.094 16.484 8.985 0 15.47-4.765 6.484-4.766 9.765-13.829h12.969q-6.094 14.141-17.422 20.781-11.25 6.641-29.22 6.641-21.561 0-30.858-11.328-6.485-7.969-6.485-20.547 0-5.39 1.25-11.719 3.985-20.859 18.047-32.422 14.062-11.562 34.688-11.562 14.922 0 25.234 5.86 10.391 5.78 10.391 16.328 0 2.109-.468 4.375-4.922 25.312-58.984 27.5zm86.249-42.34h-12.031l1.797-9.453h12.03l5-25.781h27.657l-5 25.78h23.047l-1.797 9.454h-23.047l-9.922 50.859q-1.328 6.953-1.328 10.469 0 2.11.39 3.047 1.25 2.656 5.782 2.656 5 0 8.047-3.36t4.61-10.39h11.64q-3.125 12.5-10.234 17.578-7.11 5-22.109 5-17.109 0-22.188-5.39-3.281-3.438-3.281-10.626 0-3.906 1.016-8.984l9.921-50.86zm59.46-7.81q8.516-5.234 13.359-12.578 4.844-7.344 6.953-18.359l.86-4.297h21.093q-3.828 16.328-12.5 27.266t-23.594 18.516l-6.171-10.547zm54.76 55.78h8.828q-.078 1.172-.078 2.266 0 7.656 4.61 12.266 4.609 4.53 13.905 4.53 18.203 0 20.391-11.327.313-1.485.313-3.672 0-2.11-2.031-4.453-1.953-2.344-9.766-4.375l-10.859-2.89q-12.266-3.204-16.172-8.282-3.906-5.078-3.906-11.328 0-2.656.547-5.703 2.656-13.516 13.28-20.078 10.704-6.64 27.735-6.64t35.625 5l-4.14 20.937h-8.829q.234-1.484.234-2.812 0-14.297-17.656-14.297-17.734 0-19.766 10.547-.234 1.25-.234 3.047 0 5.078 9.61 7.656l10.78 2.89q15.547 4.141 19.844 9.375 4.297 5.157 4.297 11.875 0 2.735-.625 5.938-2.734 14.062-14.062 20.781-11.328 6.64-32.5 6.64-15.39 0-33.828-4.687l4.453-23.203zM23.6 227.65H11.569l1.797-9.453h12.03l5-25.781h27.657l-5 25.78H76.1l-1.797 9.454H51.256l-9.922 50.859q-1.328 6.953-1.328 10.469 0 2.11.39 3.047 1.25 2.656 5.782 2.656 5 0 8.047-3.36t4.61-10.39h11.64q-3.125 12.5-10.234 17.578-7.11 5-22.109 5-17.109 0-22.188-5.39-3.281-3.438-3.281-10.626 0-3.906 1.016-8.984l9.921-50.86zm119.92 5.15q-.234-4.688-4.688-4.688-10.468 0-20.702 12.5-4.766 5.782-8.516 25.079-2.813 14.453-.781 20.078 2.03 5.546 9.453 5.546 7.265 0 11.797-6.484 4.61-6.484 7.422-21.016l6.015-31.016zm26.562-12.109l-13.672 71.094 10.391-.156-1.875 9.61h-34.688l2.031-10.548q-8.594 12.812-23.828 12.812-15.078 0-21.797-9.922-6.719-10-3.281-27.344 3.36-17.422 18.359-32.5 17.734-17.812 41.484-17.812 23.438 0 26.875 4.766zm46.408 71.099h11.875l-1.797 9.453h-39.53l21.796-112.19h-11.797l1.797-9.375h39.453l-21.797 112.11zm59.14 9.45h-27.656l21.797-112.19h-11.797l1.797-9.375h39.453l-15.156 78.047 39.375-30.078h-9.922l1.797-9.453h22.5l-1.797 9.453-25.156 19.219 26.25 44.922h8.984l-1.797 9.453h-30.547l-22.812-39.062-9.062 6.875-6.25 32.188zm89.45-12.66q1.172-6.094 6.328-10.469 5.235-4.375 11.328-4.375 6.094 0 9.61 4.375t2.343 10.469q-1.172 6.172-6.406 10.547-5.234 4.375-11.328 4.375-6.094 0-9.61-4.375-3.437-4.375-2.265-10.547zm20.391-103.98h29.297l-22.109 65.781-2.89 14.844h-10.86l2.891-14.844 3.672-65.781z"/></svg>