<?xml version="1.0" encoding="UTF-8" standalone="no"?>
<!-- Created with Inkscape (http://www.inkscape.org/) -->
<svg xmlns:rdf="http://www.w3.org/1999/02/22-rdf-syntax-ns#" xmlns="http://www.w3.org/2000/svg" height="85.656mm" width="122.66mm" version="1.1" xmlns:cc="http://creativecommons.org/ns#" xmlns:dc="http://purl.org/dc/elements/1.1/" viewBox="0 0 434.60938 303.50475">
 <metadata>
  <rdf:RDF>
   <cc:Work rdf:about="">
    <dc:format>image/svg+xml</dc:format>
    <dc:type rdf:resource="http://purl.org/dc/dcmitype/StillImage"/>
    <dc:title/>
   </cc:Work>
  </rdf:RDF>
 </metadata>
 <g transform="translate(-177.67 -354.68)">
  <g>
   <path d="m177.67 471.32 1.7969-9.4531h14.922l19.062-97.734h-14.922l1.7969-9.4531h60l-1.7969 9.4531h-15l-18.75 96.484h45.938l3.5156-18.438h10.547l-5.625 29.141h-101.48z"/>
   <path d="m361.11 406.32q0-11.484-9.6875-11.484-7.4219 0-11.797 7.0312-4.375 6.9531-8.3594 28.906 0 0 1.7188 0 23.906 0 27.578-18.984 0.54687-2.9688 0.54687-5.4688zm-31.719 33.75q-0.46875 2.6562-0.46875 8.2031 0.0781 16.484 16.094 16.484 8.9844 0 15.469-4.7656 6.4844-4.7656 9.7656-13.828h12.969q-6.0938 14.141-17.422 20.781-11.25 6.6406-29.219 6.6406-21.562 0-30.859-11.328-6.4844-7.9688-6.4844-20.547 0-5.3906 1.25-11.719 3.9844-20.859 18.047-32.422 14.062-11.562 34.688-11.562 14.922 0 25.234 5.8594 10.391 5.7812 10.391 16.328 0 2.1094-0.46875 4.375-4.9219 25.312-58.984 27.5z"/>
   <path d="m415.64 397.73h-12.031l1.7969-9.4531h12.031l5-25.781h27.656l-5 25.781h23.047l-1.7969 9.4531h-23.047l-9.9219 50.859q-1.3281 6.9531-1.3281 10.469 0 2.1094 0.39063 3.0469 1.25 2.6562 5.7812 2.6562 5 0 8.0469-3.3594t4.6094-10.391h11.641q-3.125 12.5-10.234 17.578-7.1094 5-22.109 5-17.109 0-22.188-5.3906-3.2812-3.4375-3.2812-10.625 0-3.9062 1.0156-8.9844l9.9219-50.859z"/>
   <path d="m475.1 389.92q8.5156-5.2344 13.359-12.578 4.8438-7.3438 6.9531-18.359l0.85937-4.2969h21.094q-3.8281 16.328-12.5 27.266t-23.594 18.516l-6.1719-10.547z"/>
   <path d="m529.86 445.7h8.8281q-0.0781 1.1719-0.0781 2.2656 0 7.6562 4.6094 12.266 4.6094 4.5312 13.906 4.5312 18.203 0 20.391-11.328 0.3125-1.4844 0.3125-3.6719 0-2.1094-2.0312-4.4531-1.9531-2.3438-9.7656-4.375l-10.859-2.8906q-12.266-3.2031-16.172-8.2812-3.9062-5.0781-3.9062-11.328 0-2.6562 0.54687-5.7031 2.6562-13.516 13.281-20.078 10.703-6.6406 27.734-6.6406t35.625 5l-4.1406 20.938h-8.8281q0.23437-1.4844 0.23437-2.8125 0-14.297-17.656-14.297-17.734 0-19.766 10.547-0.23438 1.25-0.23438 3.0469 0 5.0781 9.6094 7.6562l10.781 2.8906q15.547 4.1406 19.844 9.375 4.2969 5.1562 4.2969 11.875 0 2.7344-0.625 5.9375-2.7344 14.062-14.062 20.781-11.328 6.6406-32.5 6.6406-15.391 0-33.828-4.6875l4.4531-23.203z"/>
   <path d="m201.27 582.33h-12.031l1.7969-9.4531h12.031l5-25.781h27.656l-5 25.781h23.047l-1.7969 9.4531h-23.047l-9.9219 50.859q-1.3281 6.9531-1.3281 10.469 0 2.1094 0.39063 3.0469 1.25 2.6562 5.7812 2.6562 5 0 8.0469-3.3594t4.6094-10.391h11.641q-3.125 12.5-10.234 17.578-7.1094 5-22.109 5-17.109 0-22.188-5.3906-3.2812-3.4375-3.2812-10.625 0-3.9062 1.0156-8.9844l9.9219-50.859z"/>
   <path d="m321.19 587.48q-0.23438-4.6875-4.6875-4.6875-10.469 0-20.703 12.5-4.7656 5.7812-8.5156 25.078-2.8125 14.453-0.78125 20.078 2.0312 5.5469 9.4531 5.5469 7.2656 0 11.797-6.4844 4.6094-6.4844 7.4219-21.016l6.0156-31.016zm26.562-12.109-13.672 71.094 10.391-0.15625-1.875 9.6094h-34.688l2.0312-10.547q-8.5938 12.812-23.828 12.812-15.078 0-21.797-9.9219-6.7188-10-3.2812-27.344 3.3594-17.422 18.359-32.5 17.734-17.812 41.484-17.812 23.438 0 26.875 4.7656z"/>
   <path d="m394.16 646.47h11.875l-1.7969 9.4531h-39.531l21.797-112.19h-11.797l1.7969-9.375h39.453l-21.797 112.11z"/>
   <path d="m453.3 655.92h-27.656l21.797-112.19h-11.797l1.7969-9.375h39.453l-15.156 78.047 39.375-30.078h-9.9219l1.7969-9.4531h22.5l-1.7969 9.4531-25.156 19.219 26.25 44.922h8.9844l-1.7969 9.4531h-30.547l-22.812-39.062-9.0625 6.875-6.25 32.188z"/>
   <path d="m542.75 643.26q1.1719-6.0938 6.3281-10.469 5.2344-4.375 11.328-4.375 6.0938 0 9.6094 4.375t2.3438 10.469q-1.1719 6.1719-6.4062 10.547-5.2344 4.375-11.328 4.375-6.0938 0-9.6094-4.375-3.4375-4.375-2.2656-10.547zm20.391-103.98h29.297l-22.109 65.781-2.8906 14.844h-10.859l2.8906-14.844 3.6719-65.781z"/>
  </g>
 </g>
</svg>
