<svg height="512" width="512" xmlns="http://www.w3.org/2000/svg"><path d="M470.209 256c0 1.9-.021 3.79-.079 5.67-1.421 55.103-23.54 106.69-62.66 145.803-40.45 40.46-94.25 62.74-151.47 62.74-57.223 0-111.021-22.28-151.473-62.74C65.41 368.361 43.29 316.77 41.87 261.67c-.063-1.88-.08-3.77-.08-5.67 0-57.22 22.277-111.01 62.737-151.47C144.98 64.07 198.78 41.79 256 41.79c57.22 0 111.02 22.28 151.47 62.74 40.46 40.46 62.739 94.25 62.739 151.47z" fill="transparent"/><path d="M407.47 104.53C367.02 64.07 313.22 41.79 256 41.79c-57.223 0-111.021 22.28-151.473 62.74C64.07 144.99 41.79 198.78 41.79 256c0 1.9.02 3.79.08 5.67 1.42 55.103 23.54 106.69 62.657 145.803 40.45 40.46 94.25 62.74 151.473 62.74 57.22 0 111.02-22.28 151.47-62.74 39.12-39.109 61.239-90.7 62.66-145.803.061-1.88.079-3.77.079-5.67 0-57.22-22.279-111.01-62.739-151.47zM256 460.213c-94.603 0-174.38-64.662-197.473-152.11C54.13 291.47 51.79 274 51.79 256 51.79 143.4 143.4 51.79 256 51.79c112.6 0 204.209 91.61 204.209 204.21 0 18-2.342 35.473-6.739 52.103-23.09 87.448-102.87 152.11-197.47 152.11z" fill="#43388a" stroke="#43388a" stroke-width="11"/><path d="M256 384.651c-40.753 0-78.529-19.065-98.586-49.755l8.371-5.474c18.229 27.896 52.799 45.229 90.215 45.229s71.981-17.329 90.215-45.229l8.371 5.474c-20.057 30.69-57.832 49.755-98.586 49.755zM321.448 211.694c17.445 0 31.639 14.192 31.639 31.639h-10c0-11.932-9.707-21.639-21.639-21.639-11.931 0-21.638 9.707-21.638 21.639h-10c.002-17.447 14.194-31.639 31.638-31.639z" fill="#43388a" stroke="#43388a" stroke-width="11"/><g><path d="M190.551 211.694c17.444 0 31.639 14.192 31.639 31.639h-10c0-11.932-9.707-21.639-21.639-21.639s-21.639 9.707-21.639 21.639h-10c0-17.447 14.193-31.639 31.639-31.639z" fill="#43388a" stroke="#43388a" stroke-width="11"/></g></svg>