<svg xmlns="http://www.w3.org/2000/svg" style="isolation:isolate" viewBox="749 431 293 293"><path fill="#43388A" d="M749 577.5c0-80.856 65.644-146.5 146.5-146.5S1042 496.644 1042 577.5 976.356 724 895.5 724 749 658.356 749 577.5z"/><path fill="#FBFAFC" d="M823.933 661.619c-6.419-2.289-9.507-5.234-12.573-11.989-2.23-4.912-2.656-9.096-3.27-32.106l-.705-26.457-3.766-4.75c-7.571-9.55-7.372-8.857-3.677-12.806 7.406-7.916 7.392-7.856 8.148-36.165.614-22.967 1.041-27.153 3.27-32.064 3.066-6.754 6.154-9.699 12.573-11.988 6.423-2.291 19.325-2.313 22.435-.039 2.932 2.144 2.326 2.843-6.031 6.956-11.265 5.545-11.506 6.264-12.333 36.855-.757 28.005-1.386 31.146-7.311 36.508-3.336 3.019-3.326 4.764.045 7.767 5.489 4.891 6.491 9.843 7.343 36.282.444 13.807 1.277 26.233 1.851 27.614 1.902 4.582 7.334 9.372 11.518 10.157 5.337 1.001 7.621 3.573 5.473 6.161-2.011 2.424-16.262 2.463-22.99.064zm120.089-.08c-1.022-2.664 1.445-5.195 5.938-6.094 5.846-1.169 10.653-6.808 12.283-14.408.778-3.626 1.414-15.518 1.414-26.427 0-20.895.86-25.676 5.822-32.363 3.49-4.704 3.629-5.815.999-7.997-5.314-4.411-6.093-8.476-6.836-35.705-.868-31.75-1.315-33.099-12.65-38.108-7.902-3.493-9.086-5.47-4.685-7.826 3.494-1.87 18.38-.715 23.218 1.802 10.601 5.514 12.96 12.65 12.96 39.207 0 24.728 1.184 31.166 6.978 37.934 5.059 5.91 5.18 6.618 1.675 9.787-1.454 1.315-3.829 4.651-5.277 7.412-2.35 4.483-2.706 7.847-3.324 31.38-.659 25.13-.837 26.619-3.823 31.92-4.597 8.159-11.419 11.384-24.08 11.384-7.665 0-10.047-.426-10.612-1.898zM890.28 624.93c-7.498-2.1-13.232-9.817-13.232-17.811 0-4.685.302-5.186 3.114-5.186 2.312 0 3.282.809 3.766 3.138l1.297 6.253c.86 4.148 7.184 7.385 12.486 6.391 5.235-.983 9.036-5.159 10.141-11.144.782-4.238 1.253-4.733 4.181-4.393 3.011.349 3.289.852 3.186 5.776-.188 9.013-7.622 16.558-17.003 17.256-3.013.224-6.584.098-7.936-.28zm-50.797-49.874c-2.134-2.572.959-9.237 6.573-14.166 5.306-4.659 13.037-6.275 20.456-4.278 8.463 2.279 17.666 14.281 14.175 18.487-2.648 3.19-5.867 1.901-8.879-3.558-3.324-6.023-8.099-8.102-15.442-6.725-3.29.617-5.196 1.957-6.918 4.863-4.473 7.552-7.019 8.926-9.965 5.377zm69.284.204c-2.166-2.776.713-9.359 6.116-13.983 5.966-5.106 13.07-6.71 20.665-4.665 8.803 2.371 17.909 14.638 13.866 18.68-2.46 2.461-6.906.844-7.833-2.848-1.047-4.171-4.477-6.898-9.755-7.754-6.502-1.055-11.777 1.563-14.703 7.298-2.525 4.95-5.989 6.306-8.356 3.272z"/></svg>