<svg xmlns="http://www.w3.org/2000/svg" viewBox="0 0 423.253 423.253" width="512" height="512"><path d="M266.3 68.267H156.954c-11.261 0-20.42 9.16-20.42 20.417v122.943a6.825 6.825 0 0 0 6.827 6.827h136.533a6.826 6.826 0 0 0 6.827-6.827V88.683c-.001-11.257-9.161-20.416-20.421-20.416zm6.767 136.533h-122.88V88.683a6.77 6.77 0 0 1 6.767-6.763H266.3a6.77 6.77 0 0 1 6.767 6.763V204.8z" fill="#FFF"/><path d="M143.36 204.8H20.42C9.16 204.8 0 213.96 0 225.217v109.35c0 11.261 9.16 20.42 20.42 20.42h122.94a6.826 6.826 0 0 0 6.827-6.827V211.627a6.826 6.826 0 0 0-6.827-6.827zm-6.827 136.533H20.42a6.773 6.773 0 0 1-6.767-6.767v-109.35a6.77 6.77 0 0 1 6.767-6.764h116.113v122.881zM402.833 204.8h-122.94a6.826 6.826 0 0 0-6.827 6.827V348.16a6.825 6.825 0 0 0 6.827 6.827h122.94c11.261 0 20.42-9.16 20.42-20.417V225.217c0-11.257-9.159-20.417-20.42-20.417zm6.767 129.77a6.77 6.77 0 0 1-6.767 6.763H286.72v-122.88h116.113a6.77 6.77 0 0 1 6.767 6.763V334.57z" fill="#FFF"/><path d="M279.893 204.8H143.36a6.826 6.826 0 0 0-6.827 6.827V348.16a6.825 6.825 0 0 0 6.827 6.827h136.533a6.826 6.826 0 0 0 6.827-6.827V211.627a6.825 6.825 0 0 0-6.827-6.827zm-6.826 136.533h-122.88v-122.88h122.88v122.88zM251.313 139.394L217.18 91.607c-2.56-3.593-8.547-3.593-11.107 0l-34.133 47.787a6.83 6.83 0 0 0-.521 7.09 6.835 6.835 0 0 0 6.074 3.703h13.653v40.96a6.825 6.825 0 0 0 6.827 6.827h27.307a6.826 6.826 0 0 0 6.827-6.827v-40.96h13.653c2.56 0 4.9-1.43 6.074-3.703a6.832 6.832 0 0 0-.521-7.09zm-26.033-2.861a6.826 6.826 0 0 0-6.827 6.827v40.96H204.8v-40.96a6.825 6.825 0 0 0-6.827-6.827h-7.214l20.867-29.213 20.867 29.213h-7.213zM122.88 259.413H81.92V245.76c0-2.557-1.427-4.9-3.7-6.071a6.829 6.829 0 0 0-7.093.514L23.34 274.336c-1.794 1.283-2.86 3.354-2.86 5.557s1.067 4.273 2.86 5.557l47.787 34.133a6.829 6.829 0 0 0 10.793-5.557v-13.653h40.96a6.826 6.826 0 0 0 6.827-6.827V266.24a6.826 6.826 0 0 0-6.827-6.827zm-6.827 27.307h-40.96a6.826 6.826 0 0 0-6.827 6.827v7.214l-29.213-20.867 29.213-20.867v7.214a6.825 6.825 0 0 0 6.827 6.827h40.96v13.652zM399.913 274.336l-47.787-34.133a6.828 6.828 0 0 0-10.793 5.557v13.653h-40.96a6.826 6.826 0 0 0-6.827 6.827v27.307a6.825 6.825 0 0 0 6.827 6.827h40.96v13.653c0 2.557 1.427 4.9 3.7 6.071a6.836 6.836 0 0 0 7.093-.514l47.787-34.133c1.794-1.283 2.86-3.354 2.86-5.557s-1.066-4.274-2.86-5.558zm-44.926 26.425v-7.214a6.825 6.825 0 0 0-6.827-6.827H307.2v-13.653h40.96a6.826 6.826 0 0 0 6.827-6.827v-7.214l29.213 20.867-29.213 20.868z" fill="#FFF"/><path d="M251.834 276.77a6.835 6.835 0 0 0-6.074-3.703h-13.653v-40.96a6.825 6.825 0 0 0-6.827-6.827h-27.307a6.826 6.826 0 0 0-6.827 6.827v40.96h-13.653c-2.56 0-4.9 1.43-6.074 3.703a6.83 6.83 0 0 0 .521 7.089l34.133 47.787c1.28 1.797 3.347 2.86 5.553 2.86s4.273-1.063 5.554-2.86l34.133-47.787a6.828 6.828 0 0 0 .521-7.089zm-40.207 39.163L190.76 286.72h7.214a6.826 6.826 0 0 0 6.827-6.827v-40.96h13.653v40.96a6.825 6.825 0 0 0 6.827 6.827h7.214l-20.868 29.213z" fill="#FFF"/></svg>